<?xml version="1.0" encoding="iso-8859-1"?>
<!-- Uploaded to: SVG Repo, www.svgrepo.com, Generator: SVG Repo Mixer Tools -->
<svg height="800px" width="800px" version="1.1" id="Layer_1" xmlns="http://www.w3.org/2000/svg" xmlns:xlink="http://www.w3.org/1999/xlink" 
	 viewBox="0 0 512 512" xml:space="preserve">
<path style="fill:#3C5D76;" d="M482.25,481.662L482.25,481.662l-39.859-39.857l0,0c15.987-15.987,17.628-51.228,4.382-94.269
	c-17.169-55.793-57.505-118.283-110.668-171.448c-37.7-37.698-79.71-68.859-121.492-90.12
	c-37.269-18.963-73.528-29.404-102.094-29.404c-19.166,0-33.341,4.455-42.126,13.24l0,0L30.534,29.948l0,0
	C50.717,9.767,79.17,0.198,112.52,0.198c75.781,0,176.825,49.418,263.443,136.036C500.7,260.971,548.289,415.621,482.25,481.662z"/>
<path style="fill:#CCE9F9;" d="M399.88,56.955c19.163,0,33.335,4.455,42.121,13.24c15.987,15.987,17.626,51.229,4.382,94.269
	c-17.169,55.793-57.505,118.283-110.668,171.448c-37.698,37.696-79.71,68.859-121.49,90.119
	c-37.271,18.965-73.53,29.406-102.096,29.406c-19.166,0-33.341-4.455-42.128-13.24c-15.987-15.987-17.624-51.228-4.382-94.267
	c17.169-55.793,57.505-118.283,110.67-171.446c37.696-37.696,79.706-68.859,121.488-90.12
	c37.271-18.964,73.532-29.406,102.098-29.408h0.004L399.88,56.955 M399.874,0.588c-75.779,0.004-176.827,49.42-263.443,136.038
	C11.69,261.364-35.894,416.016,30.143,482.053c20.181,20.181,48.635,29.75,81.985,29.75c75.781,0,176.825-49.418,263.443-136.035
	C500.31,251.03,547.898,96.379,481.857,30.339C461.676,10.158,433.224,0.588,399.874,0.588L399.874,0.588z"/>
<circle style="fill:#802812;" cx="255.997" cy="256.204" r="75.155"/>
<path style="fill:#BF3C1A;" d="M255.999,331.352c-41.506,0-75.155-33.649-75.155-75.155c0-41.503,33.649-75.155,75.155-75.155"/>
<path style="fill:#93C7EF;" d="M481.465,29.948L481.465,29.948l-39.857,39.859l0,0c-15.987-15.987-51.228-17.628-94.269-4.382
	c-55.793,17.169-118.283,57.505-171.448,110.668c-37.698,37.7-68.859,79.71-90.12,121.492
	c-18.964,37.268-29.404,73.526-29.404,102.093c0,19.166,4.455,33.341,13.24,42.126l0,0L29.75,481.66l0,0
	C9.569,461.481,0,433.027,0,399.677c0-75.781,49.418-176.825,136.035-263.443C260.773,11.497,415.424-36.093,481.465,29.948z"/>
<circle style="fill:#3C5D76;" cx="49.636" cy="462.561" r="28.183"/>
<circle style="fill:#1E2E3B;" cx="461.64" cy="50.557" r="28.183"/>
<path style="fill:#5A8BB0;" d="M482.248,481.664L482.248,481.664l-39.857-39.857l-0.784,0.784
	c-15.987,15.987-51.228,17.628-94.269,4.382c-55.793-17.169-118.283-57.505-171.448-110.668
	c-37.698-37.7-68.859-79.71-90.12-121.492c-18.964-37.271-29.404-73.53-29.404-102.096c0-19.166,5.238-34.124,14.026-42.912l0,0
	L30.536,29.948l0,0C10.353,50.129,0,79.368,0,112.716c0,75.781,49.418,176.825,136.035,263.443
	C260.773,500.898,416.207,547.703,482.248,481.664z"/>
</svg>